<svg width="366" height="177" viewBox="0 0 366 177" fill="none" xmlns="http://www.w3.org/2000/svg">
<path d="M145.398 159V118.854V116.335C145.398 112.69 146.82 109.188 149.361 106.575L244.975 8.24034C247.611 5.52944 251.231 4 255.012 4H279.769C287.501 4 293.769 10.268 293.769 18V72.0388C293.769 79.7708 300.037 86.0388 307.769 86.0388H347.929C355.661 86.0388 361.929 92.3069 361.929 100.039V133.607V159C361.929 166.732 355.661 173 347.929 173H311.233C303.501 173 297.233 166.732 297.233 159V117.236C297.233 113.599 294.285 110.65 290.648 110.65C288.944 110.65 287.305 111.311 286.078 112.494L227.363 169.081C224.754 171.595 221.271 173 217.648 173H159.398C151.666 173 145.398 166.732 145.398 159Z" fill="#015763" stroke="#F5F7F9" stroke-width="8"/>
<path d="M4.56641 159V118.854V116.473C4.56641 112.746 6.05265 109.173 8.69586 106.545L107.746 8.07163C110.369 5.46379 113.918 4 117.617 4H144.053C151.785 4 158.053 10.268 158.053 18V72.0388C158.053 79.7708 164.321 86.0388 172.053 86.0388H201.816C209.548 86.0388 215.816 92.3069 215.816 100.039V129.519V159C215.816 166.732 209.548 173 201.816 173H158.85C151.118 173 144.85 166.732 144.85 159V121.166C144.85 115.359 140.142 110.65 134.334 110.65C131.556 110.65 128.89 111.75 126.92 113.709L71.3767 168.928C68.7536 171.536 65.2051 173 61.5062 173H18.5664C10.8344 173 4.56641 166.732 4.56641 159Z" fill="#015763" stroke="#F5F7F9" stroke-width="8"/>
</svg>
