<svg width="156" height="45" viewBox="0 0 156 45" fill="none" xmlns="http://www.w3.org/2000/svg">
<path d="M29.3237 31V24.3283C29.3237 23.2914 29.7281 22.2955 30.4509 21.5521L48.5841 2.90293C49.3372 2.12839 50.3716 1.69141 51.4519 1.69141H54.5663C56.7754 1.69141 58.5663 3.48227 58.5663 5.69141V13.8606C58.5663 16.0697 60.3572 17.8606 62.5663 17.8606H68.0001C70.2092 17.8606 72.0001 19.6515 72.0001 21.8606V27.236V31C72.0001 33.2091 70.2092 35 68.0001 35H63.2492C61.04 35 59.2492 33.2091 59.2492 31V24.0093C59.2492 23.2925 58.6681 22.7114 57.9513 22.7114C57.6153 22.7114 57.2925 22.8416 57.0506 23.0747L45.8387 33.8801C45.0932 34.5985 44.0982 35 43.0629 35H33.3237C31.1146 35 29.3237 33.2091 29.3237 31Z" fill="black" stroke="white" stroke-width="2"/>
<path d="M1.56641 31V24.3283C1.56641 23.2933 1.97911 22.3011 2.71308 21.5714L21.5394 2.85473C22.2888 2.10963 23.3027 1.69141 24.3595 1.69141H27.8173C30.0265 1.69141 31.8173 3.48227 31.8173 5.69141V13.8606C31.8173 16.0697 33.6082 17.8606 35.8173 17.8606H39.2021C41.4112 17.8606 43.2021 19.6515 43.2021 21.8606V26.4303V31C43.2021 33.2091 41.4112 35 39.2021 35H33.2151C31.006 35 29.2151 33.2091 29.2151 31V24.7839C29.2151 23.6393 28.2872 22.7114 27.1425 22.7114C26.5949 22.7114 26.0696 22.9281 25.6813 23.3141L15.0971 33.8366C14.3477 34.5817 13.3338 35 12.277 35H5.56641C3.35727 35 1.56641 33.2091 1.56641 31Z" fill="black" stroke="white" stroke-width="2"/>
<path d="M100.816 18.392V35H98.632V22.616L93.112 35H91.576L86.032 22.592V35H83.848V18.392H86.2L92.344 32.12L98.488 18.392H100.816ZM106.656 18.272V28.856C106.656 30.344 107.016 31.448 107.736 32.168C108.472 32.888 109.488 33.248 110.784 33.248C112.064 33.248 113.064 32.888 113.784 32.168C114.52 31.448 114.888 30.344 114.888 28.856V18.272H117.072V28.832C117.072 30.224 116.792 31.4 116.232 32.36C115.672 33.304 114.912 34.008 113.952 34.472C113.008 34.936 111.944 35.168 110.76 35.168C109.576 35.168 108.504 34.936 107.544 34.472C106.6 34.008 105.848 33.304 105.288 32.36C104.744 31.4 104.472 30.224 104.472 28.832V18.272H106.656ZM129.523 35L125.539 28.16H122.899V35H120.715V18.272H126.115C127.379 18.272 128.443 18.488 129.307 18.92C130.187 19.352 130.843 19.936 131.275 20.672C131.707 21.408 131.923 22.248 131.923 23.192C131.923 24.344 131.587 25.36 130.915 26.24C130.259 27.12 129.267 27.704 127.939 27.992L132.139 35H129.523ZM122.899 26.408H126.115C127.299 26.408 128.187 26.12 128.779 25.544C129.371 24.952 129.667 24.168 129.667 23.192C129.667 22.2 129.371 21.432 128.779 20.888C128.203 20.344 127.315 20.072 126.115 20.072H122.899V26.408ZM145.205 31.28H137.909L136.565 35H134.261L140.309 18.368H142.829L148.853 35H146.549L145.205 31.28ZM144.581 29.504L141.557 21.056L138.533 29.504H144.581ZM152.617 19.712C152.201 19.712 151.849 19.568 151.561 19.28C151.273 18.992 151.129 18.64 151.129 18.224C151.129 17.808 151.273 17.456 151.561 17.168C151.849 16.88 152.201 16.736 152.617 16.736C153.017 16.736 153.353 16.88 153.625 17.168C153.913 17.456 154.057 17.808 154.057 18.224C154.057 18.64 153.913 18.992 153.625 19.28C153.353 19.568 153.017 19.712 152.617 19.712ZM153.673 21.848V35H151.489V21.848H153.673Z" fill="black"/>
</svg>
