<svg width="137" height="32" viewBox="0 0 137 32" fill="none" xmlns="http://www.w3.org/2000/svg">
<path d="M21 25V17.3107V16.1456L35.7266 1H42.0703V12.6505H50V18.8252V25H40.2578V16.1456H38.2188L29.6094 25H21Z" stroke="#070000" stroke-width="2"/>
<path d="M1 25V17.3107V16.1456L16.2344 1H22.7969V12.6505H31V18.8252V25H20.9219V16.1456H18.8125L9.90625 25H1Z" stroke="#070000" stroke-width="2"/>
<path d="M59.7216 8.54545H63.5909L68.7727 21.1932H68.9773L74.1591 8.54545H78.0284V26H74.9943V14.0085H74.8324L70.0085 25.9489H67.7415L62.9176 13.983H62.7557V26H59.7216V8.54545ZM92.4744 8.54545H95.6364V19.9489C95.6364 21.1989 95.3409 22.2983 94.75 23.2472C94.1648 24.196 93.3409 24.9375 92.2784 25.4716C91.2159 26 89.9744 26.2642 88.554 26.2642C87.1278 26.2642 85.8835 26 84.821 25.4716C83.7585 24.9375 82.9347 24.196 82.3494 23.2472C81.7642 22.2983 81.4716 21.1989 81.4716 19.9489V8.54545H84.6335V19.6847C84.6335 20.4119 84.7926 21.0597 85.1108 21.6278C85.4347 22.196 85.8892 22.642 86.4744 22.9659C87.0597 23.2841 87.7528 23.4432 88.554 23.4432C89.3551 23.4432 90.0483 23.2841 90.6335 22.9659C91.2244 22.642 91.679 22.196 91.9972 21.6278C92.3153 21.0597 92.4744 20.4119 92.4744 19.6847V8.54545ZM99.0732 26V8.54545H105.619C106.96 8.54545 108.085 8.77841 108.994 9.24432C109.908 9.71023 110.599 10.3636 111.065 11.2045C111.536 12.0398 111.772 13.0142 111.772 14.1278C111.772 15.2472 111.533 16.2187 111.056 17.0426C110.585 17.8608 109.888 18.4943 108.968 18.9432C108.048 19.3864 106.917 19.608 105.576 19.608H100.914V16.983H105.15C105.934 16.983 106.576 16.875 107.076 16.6591C107.576 16.4375 107.945 16.1165 108.184 15.696C108.428 15.2699 108.55 14.7472 108.55 14.1278C108.55 13.5085 108.428 12.9801 108.184 12.5426C107.94 12.0994 107.567 11.7642 107.067 11.5369C106.567 11.304 105.923 11.1875 105.133 11.1875H102.235V26H99.0732ZM108.09 18.0909L112.411 26H108.883L104.638 18.0909H108.09ZM116.924 26H113.549L119.694 8.54545H123.597L129.751 26H126.376L121.714 12.125H121.577L116.924 26ZM117.035 19.1562H126.239V21.696H117.035V19.1562ZM132.007 26V12.9091H135.092V26H132.007ZM133.558 11.0511C133.07 11.0511 132.649 10.8892 132.297 10.5653C131.945 10.2358 131.768 9.84091 131.768 9.38068C131.768 8.91477 131.945 8.51989 132.297 8.19602C132.649 7.86648 133.07 7.7017 133.558 7.7017C134.053 7.7017 134.473 7.86648 134.82 8.19602C135.172 8.51989 135.348 8.91477 135.348 9.38068C135.348 9.84091 135.172 10.2358 134.82 10.5653C134.473 10.8892 134.053 11.0511 133.558 11.0511Z" fill="black"/>
</svg>
